<?xml version="1.0" encoding="utf-8"?>
<!-- Generator: Adobe Illustrator 19.1.1, SVG Export Plug-In . SVG Version: 6.00 Build 0)  -->
<svg version="1.1" xmlns="http://www.w3.org/2000/svg" xmlns:xlink="http://www.w3.org/1999/xlink" x="0px" y="0px"
	 viewBox="0 0 300 300" style="enable-background:new 0 0 300 300;" xml:space="preserve">
<style type="text/css">
	.st0{display:none;}
	.st1{display:inline;fill:none;stroke:#000000;stroke-width:0;stroke-linecap:round;stroke-linejoin:round;stroke-miterlimit:10;}
	
		.st2{display:inline;fill:none;stroke:#000000;stroke-width:0.24;stroke-linecap:round;stroke-linejoin:round;stroke-miterlimit:10;}
	
		.st3{display:inline;fill:none;stroke:#000000;stroke-width:0.84;stroke-linecap:round;stroke-linejoin:round;stroke-miterlimit:10;}
	
		.st4{display:inline;fill:none;stroke:#000000;stroke-width:0.36;stroke-linecap:round;stroke-linejoin:round;stroke-miterlimit:10;}
	
		.st5{display:inline;fill:none;stroke:#000000;stroke-width:0.48;stroke-linecap:round;stroke-linejoin:round;stroke-miterlimit:10;}
	
		.st6{display:inline;fill:none;stroke:#000000;stroke-width:0.72;stroke-linecap:round;stroke-linejoin:round;stroke-miterlimit:10;}
	
		.st7{display:inline;opacity:0.349;fill:none;stroke:#000000;stroke-width:0.24;stroke-linecap:round;stroke-linejoin:round;stroke-miterlimit:10;}
	
		.st8{display:inline;fill:none;stroke:#000000;stroke-width:0.12;stroke-linecap:round;stroke-linejoin:round;stroke-miterlimit:10;}
	
		.st9{display:inline;opacity:0.6;fill:none;stroke:#000000;stroke-width:0;stroke-linecap:round;stroke-linejoin:round;stroke-miterlimit:10;}
	
		.st10{display:inline;opacity:0.349;fill:none;stroke:#000000;stroke-width:1.68;stroke-linecap:round;stroke-linejoin:round;stroke-miterlimit:10;}
	.st11{display:inline;opacity:0.349;}
	
		.st12{display:inline;fill:none;stroke:#000000;stroke-width:1.68;stroke-linecap:round;stroke-linejoin:round;stroke-miterlimit:10;}
	.st13{opacity:0.6;fill:#B3B3B3;}
	.st14{opacity:0.6;fill:#B3B3B3;stroke:#000000;stroke-width:0;stroke-linecap:round;stroke-linejoin:round;stroke-miterlimit:10;}
	.st15{fill:#F2F2F2;}
	.st16{opacity:0.6;fill:#7C3345;stroke:#000000;stroke-width:0;stroke-linecap:round;stroke-linejoin:round;stroke-miterlimit:10;}
	.st17{opacity:0.6;fill:#7C3345;}
	.st18{fill:#7C3345;}
	.st19{fill:none;stroke:#7C3345;stroke-width:0.8;stroke-linecap:round;stroke-linejoin:round;}
	.st20{fill:none;stroke:#7C3345;stroke-linecap:round;stroke-linejoin:round;}
	.st21{fill:none;stroke:#7C3345;stroke-width:0.9805;stroke-linecap:round;stroke-linejoin:round;}
	.st22{fill:none;stroke:#7C3345;stroke-width:12.6712;stroke-linecap:round;stroke-linejoin:round;stroke-miterlimit:10;}
</style>
<g id="Layer_1" class="st0">
</g>
<g id="Layer_2">
	<polygon class="st15" points="61.1,190.2 31.4,171.6 43.7,152 73.4,170.6 	"/>
	<polygon class="st15" points="176.5,221.1 141.6,222.9 140.4,199.8 175.4,198 	"/>
	<polygon class="st15" points="188.3,201.4 221.6,190.7 228.7,212.7 195.4,223.5 	"/>
	<polygon class="st15" points="245.1,143.4 242.8,178.3 219.8,176.8 222,141.9 	"/>
	<polygon class="st15" points="234.6,128.2 236.2,93.2 259.3,94.2 257.8,129.2 	"/>
	<polygon class="st15" points="61.6,82.7 86.2,57.9 102.6,74.1 78,99 	"/>
	<polygon class="st15" points="73.5,120.7 47.8,144.4 32.1,127.4 57.8,103.7 	"/>
	<line class="st16" x1="269" y1="106.8" x2="268.9" y2="106.9"/>
	<line class="st16" x1="268.9" y1="106.9" x2="269.1" y2="106.9"/>
	<line class="st16" x1="269.1" y1="106.9" x2="269" y2="106.8"/>
	<line class="st17" x1="105.7" y1="234.8" x2="105.6" y2="234.9"/>
	<line class="st17" x1="105.6" y1="234.9" x2="105.8" y2="234.9"/>
	<line class="st17" x1="105.8" y1="234.9" x2="105.7" y2="234.8"/>
	<line class="st16" x1="95" y1="235.6" x2="94.9" y2="235.7"/>
	<line class="st16" x1="94.9" y1="235.7" x2="95.1" y2="235.7"/>
	<line class="st16" x1="95.1" y1="235.7" x2="95" y2="235.6"/>
	<line class="st13" x1="133.7" y1="224.4" x2="133.6" y2="224.5"/>
	<line class="st13" x1="133.6" y1="224.5" x2="133.8" y2="224.5"/>
	<line class="st13" x1="133.8" y1="224.5" x2="133.7" y2="224.4"/>
	
		<rect x="70.3" y="198.5" transform="matrix(-0.8632 -0.5049 0.5049 -0.8632 57.4106 435.7807)" class="st15" width="35" height="23.1"/>
	<polyline class="st15" points="122.9,115.6 137.2,74.8 188.1,92.7 173.8,133.3 122.9,115.6 	"/>
	<g>
		<path class="st18" d="M38.4,78.1c1.2,1.4,56.9,48.3,56.9,48.3"/>
		<g>
			<path class="st19" d="M38.4,78.1c0.9,1.1,34.3,29.3,49.5,42.1"/>
			<g>
				<path class="st18" d="M95.3,126.4c-4.6-1.6-10.7-3.1-15.4-3l7-4l2.8-7.6C90.5,116.3,92.9,122.2,95.3,126.4z"/>
			</g>
		</g>
	</g>
	<g>
		<line class="st18" x1="35.3" y1="222.5" x2="93.2" y2="166.5"/>
		<g>
			<line class="st19" x1="35.3" y1="222.5" x2="86.2" y2="173.3"/>
			<g>
				<path class="st18" d="M93.2,166.5c-2.1,4.4-4.1,10.4-4.5,15l-3.3-7.4l-7.3-3.6C82.7,170.3,88.7,168.5,93.2,166.5z"/>
			</g>
		</g>
	</g>
	<g>
		<line class="st18" x1="203.4" y1="270.1" x2="173.4" y2="174.5"/>
		<g>
			<line class="st19" x1="203.4" y1="270.1" x2="176.3" y2="183.7"/>
			<g>
				<path class="st18" d="M173.4,174.5c3,3.8,7.4,8.3,11.4,10.8l-8.1-0.3l-6.4,4.9C172.1,185.6,173.2,179.4,173.4,174.5z"/>
			</g>
		</g>
	</g>
	<g>
		<line class="st18" x1="280.5" y1="133.4" x2="200.1" y2="137.2"/>
		<g>
			<line class="st19" x1="280.5" y1="133.4" x2="209.7" y2="136.7"/>
			<g>
				<path class="st18" d="M200.1,137.2c4.5-1.9,10-5,13.3-8.3l-2.4,7.7l3.1,7.5C210.5,141.3,204.7,138.7,200.1,137.2z"/>
			</g>
		</g>
	</g>
	<g>
		<line class="st18" x1="58.3" y1="95" x2="64.3" y2="88.9"/>
		<g>
			<line class="st19" x1="58.3" y1="95" x2="62.6" y2="90.6"/>
			<g>
				<path class="st18" d="M64.3,88.9c-0.5,1.1-1,2.6-1.1,3.8l-0.9-1.8L60.5,90C61.7,89.9,63.2,89.4,64.3,88.9z"/>
			</g>
		</g>
	</g>
	<g>
		<line class="st18" x1="75.8" y1="109.8" x2="71.6" y2="114.3"/>
		<g>
			<line class="st19" x1="75.8" y1="109.8" x2="73.2" y2="112.6"/>
			<g>
				<path class="st18" d="M71.6,114.3c0.5-1.1,0.9-2.6,0.9-3.8l0.9,1.8l1.9,0.8C74.1,113.3,72.7,113.8,71.6,114.3z"/>
			</g>
		</g>
	</g>
	<g>
		<line class="st18" x1="78.7" y1="180.5" x2="72.3" y2="176.6"/>
		<g>
			<line class="st19" x1="78.7" y1="180.5" x2="74.4" y2="177.9"/>
			<g>
				<path class="st18" d="M72.3,176.6c1.2,0.2,2.8,0.4,3.9,0.2l-1.6,1.3l-0.4,2C73.9,178.9,73.1,177.6,72.3,176.6z"/>
			</g>
		</g>
	</g>
	<g>
		<line class="st18" x1="67.2" y1="191.6" x2="71.5" y2="194.5"/>
		<g>
			<line class="st19" x1="67.2" y1="191.6" x2="69.5" y2="193.2"/>
			<g>
				<path class="st18" d="M71.5,194.5c-1.2-0.3-2.7-0.5-3.9-0.3l1.6-1.2l0.5-2C70,192.2,70.8,193.5,71.5,194.5z"/>
			</g>
		</g>
	</g>
	<g>
		<line class="st18" x1="187.3" y1="219.1" x2="191.9" y2="217.6"/>
		<g>
			<line class="st19" x1="187.3" y1="219.1" x2="189.6" y2="218.4"/>
			<g>
				<path class="st18" d="M191.9,217.6c-0.9,0.8-2.1,1.9-2.6,2.9l0.1-2l-1.3-1.6C189.1,217.3,190.7,217.6,191.9,217.6z"/>
			</g>
		</g>
	</g>
	<g>
		<g>
			<line class="st20" x1="182.9" y1="204.5" x2="179.9" y2="204.5"/>
			<g>
				<path class="st18" d="M177.7,204c1.1-0.4,2.5-1.1,3.4-1.9l-0.7,1.9l0.7,1.9C180.2,205.1,178.8,204.4,177.7,204z"/>
			</g>
		</g>
	</g>
	<g>
		<g>
			<line class="st20" x1="250.4" y1="135" x2="250.4" y2="132"/>
			<g>
				<path class="st18" d="M250.1,129.6c0.5,1.3,1.3,2.9,2.1,3.9l-2.1-0.8l-2.1,0.8C248.8,132.5,249.6,130.9,250.1,129.6z"/>
			</g>
		</g>
	</g>
	<g>
		<line class="st18" x1="231.1" y1="135.9" x2="230.5" y2="141"/>
		<g>
			<line class="st21" x1="231.1" y1="135.9" x2="230.8" y2="138.1"/>
			<g>
				<path class="st18" d="M230.5,141c-0.4-1.4-1-3.3-1.8-4.4l2.2,1.1l2.4-0.6C232.3,138.1,231.2,139.7,230.5,141z"/>
			</g>
		</g>
	</g>
	<circle class="st22" cx="149.9" cy="149.8" r="131.6"/>
</g>
</svg>
