<?xml version="1.0" encoding="utf-8"?>
<!-- Generator: Adobe Illustrator 19.1.1, SVG Export Plug-In . SVG Version: 6.00 Build 0)  -->
<svg version="1.1" xmlns="http://www.w3.org/2000/svg" xmlns:xlink="http://www.w3.org/1999/xlink" x="0px" y="0px"
	 viewBox="0 0 300 300" style="enable-background:new 0 0 300 300;" xml:space="preserve">
<style type="text/css">
	.st0{display:none;}
	.st1{display:inline;fill:none;stroke:#000000;stroke-width:0;stroke-linecap:round;stroke-linejoin:round;stroke-miterlimit:10;}
	
		.st2{display:inline;fill:none;stroke:#000000;stroke-width:0.24;stroke-linecap:round;stroke-linejoin:round;stroke-miterlimit:10;}
	
		.st3{display:inline;fill:none;stroke:#000000;stroke-width:0.84;stroke-linecap:round;stroke-linejoin:round;stroke-miterlimit:10;}
	
		.st4{display:inline;fill:none;stroke:#000000;stroke-width:0.36;stroke-linecap:round;stroke-linejoin:round;stroke-miterlimit:10;}
	
		.st5{display:inline;fill:none;stroke:#000000;stroke-width:0.48;stroke-linecap:round;stroke-linejoin:round;stroke-miterlimit:10;}
	
		.st6{display:inline;fill:none;stroke:#000000;stroke-width:0.72;stroke-linecap:round;stroke-linejoin:round;stroke-miterlimit:10;}
	
		.st7{display:inline;opacity:0.349;fill:none;stroke:#000000;stroke-width:0.24;stroke-linecap:round;stroke-linejoin:round;stroke-miterlimit:10;}
	
		.st8{display:inline;fill:none;stroke:#000000;stroke-width:0.12;stroke-linecap:round;stroke-linejoin:round;stroke-miterlimit:10;}
	
		.st9{display:inline;opacity:0.6;fill:none;stroke:#000000;stroke-width:0;stroke-linecap:round;stroke-linejoin:round;stroke-miterlimit:10;}
	
		.st10{display:inline;opacity:0.349;fill:none;stroke:#000000;stroke-width:1.68;stroke-linecap:round;stroke-linejoin:round;stroke-miterlimit:10;}
	.st11{display:inline;opacity:0.349;}
	
		.st12{display:inline;fill:none;stroke:#000000;stroke-width:1.68;stroke-linecap:round;stroke-linejoin:round;stroke-miterlimit:10;}
	.st13{opacity:0.6;fill:#B3B3B3;}
	.st14{opacity:0.6;fill:#B3B3B3;stroke:#000000;stroke-width:0;stroke-linecap:round;stroke-linejoin:round;stroke-miterlimit:10;}
	.st15{fill:#F2F2F2;}
	.st16{opacity:0.6;fill:#7C3345;stroke:#000000;stroke-width:0;stroke-linecap:round;stroke-linejoin:round;stroke-miterlimit:10;}
	.st17{opacity:0.6;fill:#7C3345;}
	.st18{fill:#7C3345;}
	.st19{fill:none;stroke:#7C3345;stroke-width:0.8;stroke-linecap:round;stroke-linejoin:round;}
	.st20{fill:none;stroke:#7C3345;stroke-linecap:round;stroke-linejoin:round;}
	.st21{fill:none;stroke:#7C3345;stroke-width:0.9805;stroke-linecap:round;stroke-linejoin:round;}
	.st22{fill:none;stroke:#7C3345;stroke-width:12.6712;stroke-linecap:round;stroke-linejoin:round;stroke-miterlimit:10;}
</style>
<g id="Layer_1" class="st0">
</g>
<g id="Layer_2">
	<polygon class="st15" points="60.8,193.4 31.2,174.8 43.5,155.2 73.1,173.8 	"/>
	<polygon class="st15" points="176.3,224.3 141.3,226.1 140.1,203 175.1,201.2 	"/>
	<polygon class="st15" points="188,204.7 221.3,193.9 228.5,215.9 195.2,226.7 	"/>
	<polygon class="st15" points="244.8,146.6 242.6,181.5 219.5,180.1 221.7,145.1 	"/>
	<polygon class="st15" points="234.4,131.4 235.9,96.4 259,97.4 257.5,132.4 	"/>
	<polygon class="st15" points="61.3,86 85.9,61.1 102.4,77.4 77.8,102.2 	"/>
	<polygon class="st15" points="73.2,123.9 47.5,147.7 31.8,130.6 57.5,106.9 	"/>
	<line class="st15" x1="268.7" y1="110" x2="268.6" y2="110.2"/>
	<line class="st15" x1="268.6" y1="110.2" x2="268.8" y2="110.2"/>
	<line class="st15" x1="268.8" y1="110.2" x2="268.7" y2="110"/>
	<line class="st17" x1="105.5" y1="238" x2="105.3" y2="238.1"/>
	<line class="st17" x1="105.3" y1="238.1" x2="105.6" y2="238.1"/>
	<line class="st17" x1="105.6" y1="238.1" x2="105.5" y2="238"/>
	<line class="st16" x1="94.7" y1="238.8" x2="94.6" y2="238.9"/>
	<line class="st16" x1="94.6" y1="238.9" x2="94.8" y2="238.9"/>
	<line class="st16" x1="94.8" y1="238.9" x2="94.7" y2="238.8"/>
	<line class="st17" x1="133.4" y1="227.7" x2="133.4" y2="227.8"/>
	<line class="st17" x1="133.4" y1="227.8" x2="133.5" y2="227.8"/>
	<line class="st17" x1="133.5" y1="227.8" x2="133.4" y2="227.7"/>
	
		<rect x="70" y="201.8" transform="matrix(-0.8632 -0.5049 0.5049 -0.8632 55.2566 441.646)" class="st15" width="35" height="23.1"/>
	<polyline class="st15" points="122.6,118.8 136.9,78 187.8,95.9 173.5,136.6 122.6,118.8 	"/>
	
		<ellipse transform="matrix(0.9659 0.259 -0.259 0.9659 46.1008 -30.1742)" class="st18" cx="137.6" cy="159.9" rx="60.7" ry="24.7"/>
</g>
</svg>
