<?xml version="1.0" encoding="utf-8"?>
<!-- Generator: Adobe Illustrator 19.1.1, SVG Export Plug-In . SVG Version: 6.00 Build 0)  -->
<svg version="1.1" xmlns="http://www.w3.org/2000/svg" xmlns:xlink="http://www.w3.org/1999/xlink" x="0px" y="0px"
	 viewBox="0 0 300 300" style="enable-background:new 0 0 300 300;" xml:space="preserve">
<style type="text/css">
	.st0{display:none;}
	.st1{display:inline;fill:none;stroke:#000000;stroke-width:0;stroke-linecap:round;stroke-linejoin:round;stroke-miterlimit:10;}
	
		.st2{display:inline;fill:none;stroke:#000000;stroke-width:0.24;stroke-linecap:round;stroke-linejoin:round;stroke-miterlimit:10;}
	
		.st3{display:inline;fill:none;stroke:#000000;stroke-width:0.84;stroke-linecap:round;stroke-linejoin:round;stroke-miterlimit:10;}
	
		.st4{display:inline;fill:none;stroke:#000000;stroke-width:0.36;stroke-linecap:round;stroke-linejoin:round;stroke-miterlimit:10;}
	
		.st5{display:inline;fill:none;stroke:#000000;stroke-width:0.48;stroke-linecap:round;stroke-linejoin:round;stroke-miterlimit:10;}
	
		.st6{display:inline;fill:none;stroke:#000000;stroke-width:0.72;stroke-linecap:round;stroke-linejoin:round;stroke-miterlimit:10;}
	
		.st7{display:inline;opacity:0.349;fill:none;stroke:#000000;stroke-width:0.24;stroke-linecap:round;stroke-linejoin:round;stroke-miterlimit:10;}
	
		.st8{display:inline;fill:none;stroke:#000000;stroke-width:0.12;stroke-linecap:round;stroke-linejoin:round;stroke-miterlimit:10;}
	
		.st9{display:inline;opacity:0.6;fill:none;stroke:#000000;stroke-width:0;stroke-linecap:round;stroke-linejoin:round;stroke-miterlimit:10;}
	
		.st10{display:inline;opacity:0.349;fill:none;stroke:#000000;stroke-width:1.68;stroke-linecap:round;stroke-linejoin:round;stroke-miterlimit:10;}
	.st11{display:inline;opacity:0.349;}
	
		.st12{display:inline;fill:none;stroke:#000000;stroke-width:1.68;stroke-linecap:round;stroke-linejoin:round;stroke-miterlimit:10;}
	.st13{opacity:0.6;fill:#B3B3B3;}
	.st14{opacity:0.6;fill:#B3B3B3;stroke:#000000;stroke-width:0;stroke-linecap:round;stroke-linejoin:round;stroke-miterlimit:10;}
	.st15{fill:#F2F2F2;}
	.st16{opacity:0.6;fill:#7C3345;stroke:#000000;stroke-width:0;stroke-linecap:round;stroke-linejoin:round;stroke-miterlimit:10;}
	.st17{opacity:0.6;fill:#7C3345;}
	.st18{fill:#7C3345;}
	.st19{fill:none;stroke:#7C3345;stroke-width:0.8;stroke-linecap:round;stroke-linejoin:round;}
	.st20{fill:none;stroke:#7C3345;stroke-linecap:round;stroke-linejoin:round;}
	.st21{fill:none;stroke:#7C3345;stroke-width:0.9805;stroke-linecap:round;stroke-linejoin:round;}
	.st22{fill:none;stroke:#7C3345;stroke-width:12.6712;stroke-linecap:round;stroke-linejoin:round;stroke-miterlimit:10;}
</style>
<g id="Layer_1" class="st0">
</g>
<g id="Layer_2">
	<polygon class="st15" points="60.8,196.8 31.2,178.2 43.5,158.6 73.1,177.2 	"/>
	<polygon class="st15" points="176.3,227.7 141.3,229.5 140.1,206.4 175.1,204.6 	"/>
	<polygon class="st15" points="188,208 221.3,197.3 228.5,219.3 195.2,230.1 	"/>
	<polygon class="st15" points="244.8,150 242.6,184.9 219.5,183.4 221.7,148.5 	"/>
	<polygon class="st15" points="234.4,134.8 235.9,99.8 259,100.8 257.5,135.8 	"/>
	<polygon class="st15" points="61.3,89.3 85.9,64.5 102.4,80.7 77.8,105.6 	"/>
	<polygon class="st15" points="73.2,127.3 47.5,151 31.8,134 57.5,110.3 	"/>
	<line class="st13" x1="268.7" y1="113.4" x2="268.6" y2="113.5"/>
	<line class="st13" x1="268.6" y1="113.5" x2="268.8" y2="113.5"/>
	<line class="st13" x1="268.8" y1="113.5" x2="268.7" y2="113.4"/>
	<line class="st13" x1="133.4" y1="231" x2="133.4" y2="231.1"/>
	<line class="st13" x1="133.4" y1="231.1" x2="133.5" y2="231.1"/>
	<line class="st13" x1="133.5" y1="231.1" x2="133.4" y2="231"/>
	
		<rect x="70" y="205.1" transform="matrix(-0.8632 -0.5049 0.5049 -0.8632 53.5528 447.934)" class="st15" width="35" height="23.1"/>
	<polyline class="st18" points="122.6,122.2 136.9,81.4 187.8,99.3 173.5,139.9 122.6,122.2 	"/>
	<g>
		<g>
			<path class="st19" d="M186.4,221.6c-0.2-2.4,0.3-29.5-18.8-59.3"/>
			<g>
				<path class="st18" d="M162,154.3c4,2.8,9.5,5.8,14,7l-7.8,2l-4.7,6.6C164,165.3,163.2,159,162,154.3z"/>
			</g>
		</g>
	</g>
	<g>
		<g>
			<path class="st19" d="M118.7,150.1c-36.7,16.5-48.9,48.4-48.9,48.4"/>
			<g>
				<path class="st18" d="M127.7,146.6c-4.8,0.1-11.1-0.4-15.5-1.9l5.4,6l0.3,8.1C119.9,154.6,124.1,149.9,127.7,146.6z"/>
			</g>
		</g>
	</g>
	<g>
		<g>
			<path class="st19" d="M64.6,105.6c0,0,7.7,23,54.3,27.7"/>
			<g>
				<path class="st18" d="M128.5,134c-4.7,1.3-10.5,3.8-14.2,6.6l3.3-7.4l-2.2-7.8C118.7,128.7,124.1,132,128.5,134z"/>
			</g>
		</g>
	</g>
	<g>
		<g>
			<path class="st19" d="M250.7,141.1c-2-0.3-30.3-0.1-44.8,8.1c-9.5,5.3-25.8,1-35.9-2.5"/>
			<g>
				<path class="st18" d="M161,143c4.8,0.1,11.1-0.5,15.5-2l-5.4,6.1l-0.2,8.1C168.8,151,164.6,146.3,161,143z"/>
			</g>
		</g>
	</g>
</g>
</svg>
