<?xml version="1.0" encoding="utf-8"?>
<!-- Generator: Adobe Illustrator 19.1.1, SVG Export Plug-In . SVG Version: 6.00 Build 0)  -->
<svg version="1.1" xmlns="http://www.w3.org/2000/svg" xmlns:xlink="http://www.w3.org/1999/xlink" x="0px" y="0px"
	 viewBox="0 0 1024 768" style="enable-background:new 0 0 1024 768;" xml:space="preserve">
<style type="text/css">
	.st0{fill:none;}
	.st1{fill:#524F50;}
	.st2{fill:#777475;}
	.st3{display:none;}
	.st4{display:inline;fill:url(#SVGID_1_);}
	.st5{filter:url(#Adobe_OpacityMaskFilter);}
	.st6{fill:url(#SVGID_3_);}
	.st7{mask:url(#SVGID_2_);fill:url(#hexflat3);}
	.st8{display:inline;fill:url(#hex2);}
	.st9{fill:url(#SVGID_4_);}
	.st10{fill:#403D3E;}
	.st11{fill:url(#SVGID_5_);}
	.st12{fill:url(#SVGID_6_);}
	.st13{fill:#666666;}
	.st14{fill:url(#SVGID_7_);}
	.st15{fill:#777475;stroke:#524F50;stroke-width:2;stroke-miterlimit:10;}
</style>
<pattern  width="31.5" height="19" patternUnits="userSpaceOnUse" id="hex2" viewBox="10 -28 31.5 19" style="overflow:visible;">
	<g>
		<polygon class="st0" points="10,-28 41.5,-28 41.5,-9 10,-9 		"/>
		<g>
			<polygon class="st1" points="36.5,0 31.5,-9 36.5,-18 46.5,-18 51.5,-9 46.5,0 			"/>
			<polygon class="st2" points="37.7,-2 33.8,-9 37.7,-16 45.3,-16 49.2,-9 45.3,-2 			"/>
		</g>
		<g>
			<polygon class="st1" points="5,0 0,-9 5,-18 15,-18 20,-9 15,0 			"/>
			<polygon class="st2" points="6.2,-2 2.3,-9 6.2,-16 13.8,-16 17.7,-9 13.8,-2 			"/>
		</g>
		<g>
			<polygon class="st1" points="36.5,-19 31.5,-28 36.5,-37 46.5,-37 51.5,-28 46.5,-19 			"/>
			<polygon class="st2" points="37.7,-21 33.8,-28 37.7,-35 45.3,-35 49.2,-28 45.3,-21 			"/>
		</g>
		<g>
			<polygon class="st1" points="20.8,-9.5 15.8,-18.5 20.8,-27.5 30.8,-27.5 35.8,-18.5 30.8,-9.5 			"/>
			<polygon class="st2" points="21.9,-11.5 18,-18.5 21.9,-25.5 29.6,-25.5 33.5,-18.5 29.6,-11.5 			"/>
		</g>
		<g>
			<polygon class="st1" points="5,-19 0,-28 5,-37 15,-37 20,-28 15,-19 			"/>
			<polygon class="st2" points="6.2,-21 2.3,-28 6.2,-35 13.8,-35 17.7,-28 13.8,-21 			"/>
		</g>
	</g>
</pattern>
<pattern  width="31.5" height="20" patternUnits="userSpaceOnUse" id="hexflat3" viewBox="7.7 -27 31.5 20" style="overflow:visible;">
	<g>
		<polygon class="st0" points="7.7,-27 39.2,-27 39.2,-7 7.7,-7 		"/>
		<polygon class="st2" points="35.4,0 31.5,-7 35.4,-14 43,-14 46.9,-7 43,0 		"/>
		<polygon class="st2" points="3.9,0 0,-7 3.9,-14 11.5,-14 15.4,-7 11.5,0 		"/>
		<polygon class="st2" points="35.4,-20 31.5,-27 35.4,-34 43,-34 46.9,-27 43,-20 		"/>
		<polygon class="st2" points="19.6,-10 15.8,-17 19.6,-24 27.3,-24 31.2,-17 27.3,-10 		"/>
		<polygon class="st2" points="3.9,-20 0,-27 3.9,-34 11.5,-34 15.4,-27 11.5,-20 		"/>
	</g>
</pattern>
<g id="Layer_4" class="st3">
	<linearGradient id="SVGID_1_" gradientUnits="userSpaceOnUse" x1="1024.5" y1="385" x2="-30.9852" y2="385">
		<stop  offset="0" style="stop-color:#FFFFFF"/>
		<stop  offset="1" style="stop-color:#000000"/>
	</linearGradient>
	<polygon class="st4" points="980,46 980,1 942,1 942,105 884,105 884,46 860,46 860,152 826,152 826,64 768,64 768,31 710,31 
		710,1 652,1 652,64 536,64 536,170 478,170 478,121 438,121 438,74 398,74 398,1 327,1 327,138 256,138 256,1 164,1 164,61 109,61 
		109,21 54,21 54,46 -1,46 -1,769 54,769 54,653 109,653 109,730 164,730 164,688 256,688 256,730 327,730 327,769 398,769 398,653 
		438,653 438,702 478,702 478,726 536,726 536,603 652,603 652,665 710,665 710,713 768,713 768,769 826,769 826,705 860,705 
		860,715 884,715 884,750 942,750 942,769 980,769 980,705 1023,705 1023,46 	"/>
</g>
<g id="Layer_1">
	<defs>
		<filter id="Adobe_OpacityMaskFilter" filterUnits="userSpaceOnUse" x="-1" y="0" width="1024" height="769">
			
				<feColorMatrix  type="matrix" values="-1 0 0 0 1  0 -1 0 0 1  0 0 -1 0 1  0 0 0 1 0" color-interpolation-filters="sRGB" result="source"/>
		</filter>
	</defs>
	<mask maskUnits="userSpaceOnUse" x="-1" y="0" width="1024" height="769" id="SVGID_2_">
		<g class="st5">
			<linearGradient id="SVGID_3_" gradientUnits="userSpaceOnUse" x1="511" y1="809" x2="511" y2="-42.037">
				<stop  offset="0" style="stop-color:#000000"/>
				<stop  offset="5.299276e-002" style="stop-color:#0A0A0A"/>
				<stop  offset="0.1429" style="stop-color:#252525"/>
				<stop  offset="0.2588" style="stop-color:#505050"/>
				<stop  offset="0.3946" style="stop-color:#8C8C8C"/>
				<stop  offset="0.4783" style="stop-color:#B4B4B4"/>
				<stop  offset="0.7052" style="stop-color:#606060"/>
				<stop  offset="0.9065" style="stop-color:#1B1B1B"/>
				<stop  offset="1" style="stop-color:#000000"/>
			</linearGradient>
			<polygon class="st6" points="980,43 980,-2 942,-2 942,102 884,102 884,43 860,43 860,150 826,150 826,61 768,61 768,28 710,28 
				710,-2 652,-2 652,61 536,61 536,168 478,168 478,118 438,118 438,71 398,71 398,-2 327,-2 327,136 256,136 256,-2 164,-2 
				164,58 109,58 109,18 54,18 54,43 -1,43 -1,769 54,769 54,653 109,653 109,730 164,730 164,688 256,688 256,730 327,730 327,769 
				398,769 398,653 438,653 438,702 478,702 478,726 536,726 536,602 652,602 652,665 710,665 710,713 768,713 768,769 826,769 
				826,705 860,705 860,715 884,715 884,750 942,750 942,769 980,769 980,705 1023,705 1023,43 			"/>
		</g>
	</mask>
	<rect x="-1" class="st7" width="1024" height="769"/>
</g>
<g id="Layer_8">
</g>
<g id="Layer_2" class="st3">
	<rect class="st8" width="1024" height="769"/>
</g>
<g id="Layer_5">
	<linearGradient id="SVGID_4_" gradientUnits="userSpaceOnUse" x1="-224" y1="176" x2="-196.4753" y2="176">
		<stop  offset="0" style="stop-color:#FFFFFF"/>
		<stop  offset="1" style="stop-color:#000000"/>
	</linearGradient>
	<polygon class="st9" points="-213,185 -218,176 -213,167 -203,167 -198,176 -203,185 	"/>
	<polygon class="st10" points="-211.8,183 -215.7,176 -211.8,169 -204.2,169 -200.3,176 -204.2,183 	"/>
	<linearGradient id="SVGID_5_" gradientUnits="userSpaceOnUse" x1="-209" y1="185" x2="-181.4753" y2="185">
		<stop  offset="0" style="stop-color:#FFFFFF"/>
		<stop  offset="1" style="stop-color:#000000"/>
	</linearGradient>
	<polygon class="st11" points="-198,194 -203,185 -198,176 -188,176 -183,185 -188,194 	"/>
	<polygon class="st10" points="-196.8,192 -200.7,185 -196.8,178 -189.2,178 -185.3,185 -189.2,192 	"/>
	<polygon class="st1" points="-120,187 -125,178 -120,169 -110,169 -105,178 -110,187 	"/>
	<polygon class="st2" points="-213,167 -218,158 -213,149 -203,149 -198,158 -203,167 	"/>
	<polygon class="st2" points="-213,203 -218,194 -213,185 -203,185 -198,194 -203,203 	"/>
	<polygon class="st2" points="-198,176 -203,167 -198,158 -188,158 -183,167 -188,176 	"/>
	<polygon class="st2" points="-228,194 -233,185 -228,176 -218,176 -213,185 -218,194 	"/>
	<polygon class="st2" points="-228,176 -233,167 -228,158 -218,158 -213,167 -218,176 	"/>
	<polygon class="st2" points="-118.8,185 -122.7,178 -118.8,171 -111.2,171 -107.3,178 -111.2,185 	"/>
	<polygon class="st2" points="-69.8,159 -73.7,152 -69.8,145 -62.2,145 -58.3,152 -62.2,159 	"/>
</g>
<g id="Layer_7">
</g>
<g id="Layer_6">
	<linearGradient id="SVGID_6_" gradientUnits="userSpaceOnUse" x1="-146" y1="205" x2="-118.4753" y2="205">
		<stop  offset="0" style="stop-color:#FFFFFF"/>
		<stop  offset="1" style="stop-color:#000000"/>
	</linearGradient>
	<polygon class="st12" points="-135,214 -140,205 -135,196 -125,196 -120,205 -125,214 	"/>
	<polygon class="st13" points="-133.8,212 -137.7,205 -133.8,198 -126.2,198 -122.3,205 -126.2,212 	"/>
	<linearGradient id="SVGID_7_" gradientUnits="userSpaceOnUse" x1="-110" y1="268" x2="-82.4753" y2="268">
		<stop  offset="0" style="stop-color:#FFFFFF"/>
		<stop  offset="1" style="stop-color:#000000"/>
	</linearGradient>
	<polygon class="st14" points="-99,277 -104,268 -99,259 -89,259 -84,268 -89,277 	"/>
	<polygon class="st13" points="-97.8,275 -101.7,268 -97.8,261 -90.2,261 -86.3,268 -90.2,275 	"/>
</g>
<g id="Layer_3">
	<polygon class="st15" points="-178,262 -183,253 -178,244 -168,244 -163,253 -168,262 	"/>
</g>
</svg>
